<svg xmlns="http://www.w3.org/2000/svg" viewBox="0 0 100 100">
  <defs>
    <radialGradient id="grad" cx="50%" cy="50%" r="50%" fx="50%" fy="50%">
      <stop offset="0%" stop-color="#FFFFFF" />
      <stop offset="60%" stop-color="#E0E0E0" />
      <stop offset="100%" stop-color="#9E9E9E" />
    </radialGradient>
  </defs>
  <!-- Background -->
  <circle cx="50" cy="50" r="48" fill="url(#grad)" stroke="#212121" stroke-width="4"/>
  <!-- Pentagons -->
  <path d="M 50 15 L 61 24 L 57 37 L 43 37 L 39 24 Z" fill="#212121" />
  <path d="M 20 45 L 34 40 L 40 54 L 30 63 L 15 55 Z" fill="#212121" />
  <path d="M 80 45 L 66 40 L 60 54 L 70 63 L 85 55 Z" fill="#212121" />
  <path d="M 50 85 L 65 77 L 60 63 L 40 63 L 35 77 Z" fill="#212121" />
  <!-- Connecting lines -->
  <line x1="50" y1="15" x2="50" y2="2" stroke="#212121" stroke-width="3"/>
  <line x1="39" y1="24" x2="27" y2="18" stroke="#212121" stroke-width="3"/>
  <line x1="61" y1="24" x2="73" y2="18" stroke="#212121" stroke-width="3"/>
  
  <line x1="43" y1="37" x2="34" y2="40" stroke="#212121" stroke-width="3"/>
  <line x1="57" y1="37" x2="66" y2="40" stroke="#212121" stroke-width="3"/>
  
  <line x1="40" y1="54" x2="40" y2="63" stroke="#212121" stroke-width="3"/>
  <line x1="60" y1="54" x2="60" y2="63" stroke="#212121" stroke-width="3"/>
  
  <line x1="30" y1="63" x2="35" y2="77" stroke="#212121" stroke-width="3"/>
  <line x1="70" y1="63" x2="65" y2="77" stroke="#212121" stroke-width="3"/>
  
  <line x1="50" y1="85" x2="50" y2="98" stroke="#212121" stroke-width="3"/>
  <line x1="15" y1="55" x2="5" y2="60" stroke="#212121" stroke-width="3"/>
  <line x1="85" y1="55" x2="95" y2="60" stroke="#212121" stroke-width="3"/>
  <line x1="20" y1="45" x2="10" y2="35" stroke="#212121" stroke-width="3"/>
  <line x1="80" y1="45" x2="90" y2="35" stroke="#212121" stroke-width="3"/>
  
  <!-- Highlight -->
  <ellipse cx="40" cy="30" rx="15" ry="8" fill="#FFFFFF" fill-opacity="0.6" transform="rotate(-30 40 30)" />
</svg>
